<svg id="bold" height="512" viewBox="0 0 24 24" width="512" xmlns="http://www.w3.org/2000/svg"><path fill="#FF2D82" d="m22.529 8.274-3.754-3.009c.135-.399.225-.82.225-1.265 0-2.206-1.794-4-4-4-.778 0-1.051.491-.916.965l.538 1.888-.769.769-1.888-.538c-.472-.136-.965.137-.965.916 0 2.206 1.794 4 4 4 .445 0 .866-.09 1.266-.225l2.994 3.735c.234.312.595.49.99.49.328 0 .64-.131.88-.37l1.501-1.501c.238-.239.369-.551.369-.879 0-.395-.178-.756-.471-.976z"/><path fill="#FF2D82" d="m19 13.75c-.52-.21-.98-.57-1.34-1.04l-2.19-2.73c-3.5.3-6.47-2.52-6.47-5.98 0-2.131 1.68-3.087 3.07-2.93-.04-.36-.01-.72.1-1.07h-8.17c-1.65 0-3 1.35-3 3v14.5c0 .98 1.339 2.5 3 2.5h3v3.25c0 .652.778.989 1.25.56l1.75-1.56 1.75 1.56c.456.423 1.25.103 1.25-.56v-3.25h5c.55 0 1-.45 1-1 0-.188 0-1.263 0-5.25zm-12 4.25h-3c-.55 0-1-.45-1-1s.45-1 1-1h3zm10 0h-4v-2h4z"/></svg>
