<?xml version="1.0" encoding="utf-8"?>
<!-- Generator: Adobe Illustrator 24.0.1, SVG Export Plug-In . SVG Version: 6.00 Build 0)  -->
<svg version="1.1" id="layer" xmlns="http://www.w3.org/2000/svg" xmlns:xlink="http://www.w3.org/1999/xlink" x="0px" y="0px"
	 width="652px" height="179px" viewBox="0 0 652 179" style="enable-background:new 0 0 652 179;" xml:space="preserve">
<style type="text/css">
	.st0{fill:#FFFFFF;}
	.st1{fill:#FABF2C;}
</style>
<g id="CT-logo-BlackYellow-tag">
	<g id="Atoms_x2F_Icons_x2F_logos_x2F_CT-GY-icon">
		<g id="Group">
			<path id="Shape" class="st0" d="M114.5,122.5l-25,10.9v-1.1c-4.8,1.2-10.2,1.9-15.2,2.2c-23.6-0.2-42.2-12.6-42.5-27.2v-5.4
				c7.7,11.2,23.5,18.8,42.5,18.5c6.4,0.3,13-0.7,18.5-2.2l2.2-5.4c-6.5,2-13.7,3.3-20.7,3.3c-23.6,0-42.2-12.3-42.5-27.2v-4.4
				c7.7,10.4,23.5,17.9,42.5,17.4c8.6,0.5,16.9-1.3,24-4.4l1.1-5.4c-6.9,3.6-15.8,5.7-25,5.4c-23.6,0.3-42.2-12-42.5-27.2v-4.4
				c7.7,10.6,23.5,18.2,42.5,18.5c10.8-0.3,21-3.2,29.4-7.6l1.1-6.5c-7.6,5.6-18.7,9.3-30.5,9.8c-23.6-0.5-42.2-12.9-42.5-28.3
				c0.2-14.7,18.9-27,42.5-27.2c14,0.2,27.1,5.1,34.8,13.1L110,39h5.5l-0.8-1.3C107,27.2,91.5,20.3,74.4,20.3
				c-26.2-0.1-47,14.2-47,31.4v1.1v55.5c0.9,16.8,21.2,30.5,46.8,30.5C91.1,138.9,106.4,132.2,114.5,122.5z"/>
			<path id="Shape_1_" class="st1" d="M104.3,160.8l8.8-37.4l-25.3,11l15.4-64.8H73.6l7.7-31.9h94.5l-7.7,31.9h-30.8l-6.6,17.6
				l34.1-14.3L104.3,160.8z M119.7,115.8l-4.4,22l36.3-54.9l-29.7,13.2l13.2-30.8h29.7l5.5-23.1H84.5L79,65.3h29.7l-14.3,61.5
				L119.7,115.8z"/>
		</g>
	</g>
	<path id="Shape_2_" class="st0" d="M238.5,59.1v0.1c0.1,3.5-1,6.2-3.2,8.2s-5.2,3-9.1,3c-3.9,0-7.1-1.3-9.5-3.8s-3.6-5.8-3.6-9.8
		v-6.5c0-4,1.2-7.3,3.5-9.8c2.4-2.5,5.5-3.8,9.3-3.8c4,0,7.1,1,9.4,2.9c2.3,2,3.4,4.7,3.3,8.2v0.1h-6.4c0-2.1-0.5-3.7-1.5-4.7
		s-2.6-1.5-4.7-1.5c-2,0-3.5,0.8-4.6,2.4s-1.7,3.6-1.7,6.1v6.6c0,2.5,0.6,4.6,1.7,6.2c1.2,1.6,2.8,2.4,4.9,2.4c2,0,3.4-0.5,4.4-1.5
		s1.5-2.6,1.5-4.7h6.3V59.1z M274.7,56.5c0,4-1.3,7.4-3.8,10s-5.8,3.9-9.9,3.9c-4.1,0-7.3-1.3-9.9-3.9c-2.5-2.6-3.8-6-3.8-10v-5.9
		c0-4,1.3-7.3,3.8-10c2.5-2.6,5.8-4,9.8-4c4.1,0,7.4,1.3,9.9,4c2.6,2.6,3.8,6,3.8,10L274.7,56.5L274.7,56.5z M268.1,50.5
		c0-2.6-0.6-4.6-1.9-6.3c-1.3-1.6-3-2.5-5.3-2.5c-2.2,0-4,0.8-5.2,2.5c-1.2,1.6-1.9,3.7-1.9,6.3v5.9c0,2.6,0.6,4.7,1.9,6.4
		c1.2,1.6,3,2.5,5.2,2.5c2.3,0,4-0.8,5.3-2.5c1.3-1.6,1.9-3.8,1.9-6.4V50.5z M291.7,69.9H285V37.1h6.6V69.9z M329.6,69.9H323
		l-13.2-22.1h-0.1v22.1H303V37.1h6.6l13.2,22.1h0.1V37.1h6.6V69.9z M362.7,42.2h-9.4v27.7h-6.6V42.2h-9.2v-5.1h25.2V42.2z
		 M389.9,55.5h-12.2v9.4h14.5v5h-21V37.1h21v5.1h-14.4v8.2H390L389.9,55.5L389.9,55.5z M408.2,64.9h14.7v5h-21.3V37.1h6.6V64.9
		L408.2,64.9z M450.9,55.5h-12.2v9.4h14.5v5h-21V37.1h21v5.1h-14.4v8.2H451L450.9,55.5L450.9,55.5z M487.8,65.5
		c-1,1.3-2.5,2.5-4.6,3.5c-2,1-4.6,1.5-7.8,1.5c-4,0-7.2-1.2-9.7-3.7s-3.8-5.7-3.8-9.7v-6.9c0-4,1.2-7.2,3.7-9.7
		c2.4-2.5,5.6-3.8,9.4-3.8c4,0,7.1,1,9.2,2.9c2.1,1.9,3.2,4.4,3.1,7.6v0.1h-6.2c0-1.7-0.5-3.1-1.5-4.1s-2.5-1.5-4.4-1.5
		c-2,0-3.6,0.8-4.9,2.3c-1.2,1.6-1.8,3.6-1.8,6v6.9c0,2.5,0.6,4.5,1.9,6.1s3,2.3,5.1,2.3c1.6,0,2.8-0.2,3.7-0.5
		c0.9-0.3,1.6-0.7,2.1-1.2v-6.4H475v-4.6h12.9v12.9H487.8z M504.8,56.8v13.1h-6.6V37.1h11.4c3.7,0,6.7,0.9,8.8,2.6
		c2.1,1.7,3.2,4.1,3.2,7.1c0,1.7-0.4,3.1-1.3,4.4c-0.9,1.2-2.2,2.2-3.9,3c1.9,0.6,3.3,1.5,4.2,2.9c0.8,1.3,1.3,3,1.3,5v2.4
		c0,0.9,0.1,1.9,0.4,2.9c0.2,1,0.7,1.7,1.3,2.2v0.5h-6.8c-0.6-0.5-1-1.3-1.2-2.4s-0.3-2.2-0.3-3.2v-2.3c0-1.6-0.4-2.9-1.3-3.8
		c-0.9-0.9-2.2-1.4-3.8-1.4h-5.4V56.8z M504.8,51.8h4.7c1.8,0,3.2-0.4,4.1-1.2c0.9-0.8,1.4-1.9,1.4-3.5c0-1.5-0.5-2.7-1.4-3.6
		c-0.9-0.9-2.2-1.3-4-1.3h-4.8L504.8,51.8L504.8,51.8z M549.5,62.9h-10.6l-2.2,7.1h-6.9l11.1-32.8h6.7l11,32.8h-6.9L549.5,62.9z
		 M540.5,57.7h7.4l-3.6-11.6h-0.1L540.5,57.7z M573.2,58v11.9h-6.6V37.1h12.6c3.8,0,6.7,1,8.9,2.9s3.2,4.5,3.2,7.6s-1.1,5.7-3.2,7.6
		c-2.2,1.9-5.1,2.9-8.9,2.9h-6V58z M573.2,53h6c1.8,0,3.2-0.5,4.2-1.5c0.9-1,1.4-2.3,1.4-3.8c0-1.6-0.5-2.9-1.4-3.9
		s-2.3-1.5-4.2-1.5h-6V53z M627.4,69.9h-6.6V56.3h-13.4v13.6h-6.6V37.1h6.6v14.1h13.4V37.1h6.6V69.9z"/>
	<g id="Tag_x2F_The-future-of-money-_x2014_-dark-grey" transform="translate(169.000000, 69.000000)">
		<path id="The-future-of-money" class="st0" d="M56.1,54.5H52V32.9h-7.4v-3.5h18.9v3.5h-7.4C56.1,32.9,56.1,54.5,56.1,54.5z
			 M83.6,54.5h-4.1V42.8c0-1.5-0.3-2.6-0.9-3.3c-0.6-0.7-1.5-1.1-2.8-1.1c-1.7,0-2.9,0.5-3.7,1.5c-0.8,1-1.2,2.7-1.2,5.1v9.4h-4
			V27.7h4v6.8c0,1.1-0.1,2.2-0.2,3.5H71c0.5-0.9,1.3-1.6,2.3-2.1s2.1-0.8,3.4-0.8c4.6,0,6.9,2.3,6.9,7V54.5z M97.5,54.8
			c-3,0-5.3-0.9-6.9-2.6c-1.7-1.7-2.5-4.1-2.5-7.1c0-3.1,0.8-5.5,2.3-7.3s3.7-2.7,6.4-2.7c2.5,0,4.5,0.8,5.9,2.3
			c1.5,1.5,2.2,3.6,2.2,6.3v2.2H92.2c0.1,1.8,0.6,3.3,1.5,4.2c0.9,1,2.3,1.5,4,1.5c1.1,0,2.2-0.1,3.1-0.3c1-0.2,2-0.6,3.1-1.1v3.3
			c-1,0.5-2,0.8-3,1C100,54.7,98.8,54.8,97.5,54.8z M96.8,38.2c-1.3,0-2.3,0.4-3.1,1.2c-0.8,0.8-1.2,2-1.4,3.6h8.6
			c0-1.6-0.4-2.8-1.1-3.6C99.1,38.6,98.1,38.2,96.8,38.2z M128.1,38.5h-4.6v16h-4.1v-16h-3.1v-1.9l3.1-1.2v-1.2c0-2.2,0.5-3.9,1.6-5
			s2.7-1.6,4.8-1.6c1.4,0,2.8,0.2,4.2,0.7l-1.1,3.1c-1-0.3-1.9-0.5-2.9-0.5c-0.9,0-1.6,0.3-2,0.8c-0.4,0.6-0.6,1.4-0.6,2.5v1.2h4.6
			L128.1,38.5L128.1,38.5z M144.8,54.5l-0.6-2.5H144c-0.6,0.9-1.4,1.6-2.4,2.1s-2.2,0.8-3.5,0.8c-2.3,0-4-0.6-5.2-1.7
			s-1.7-2.9-1.7-5.2V35.5h4.1v11.7c0,1.5,0.3,2.5,0.9,3.3c0.6,0.7,1.5,1.1,2.8,1.1c1.7,0,2.9-0.5,3.7-1.5s1.2-2.7,1.2-5.1v-9.5h4.1
			v19H144.8z M160.8,51.5c1,0,2-0.2,3-0.5v3c-0.4,0.2-1,0.4-1.7,0.5s-1.4,0.2-2.2,0.2c-3.8,0-5.7-2-5.7-6V38.5h-2.6v-1.8l2.8-1.5
			l1.4-4h2.5v4.2h5.4v3.1h-5.4v10.2c0,1,0.2,1.7,0.7,2.2C159.3,51.3,160,51.5,160.8,51.5z M180.9,54.5l-0.6-2.5h-0.2
			c-0.6,0.9-1.4,1.6-2.4,2.1s-2.2,0.8-3.5,0.8c-2.3,0-4-0.6-5.2-1.7c-1.1-1.1-1.7-2.9-1.7-5.2V35.5h4.1v11.7c0,1.5,0.3,2.5,0.9,3.3
			c0.6,0.7,1.5,1.1,2.8,1.1c1.7,0,2.9-0.5,3.7-1.5s1.2-2.7,1.2-5.1v-9.5h4.1v19H180.9z M199.5,35.1c0.8,0,1.5,0.1,2,0.2l-0.4,3.8
			c-0.6-0.1-1.2-0.2-1.8-0.2c-1.6,0-2.9,0.5-3.9,1.6s-1.5,2.4-1.5,4.1v9.9h-4v-19h3.2l0.5,3.3h0.2c0.6-1.1,1.5-2,2.5-2.7
			C197.2,35.5,198.3,35.1,199.5,35.1z M212.6,54.8c-3,0-5.3-0.9-6.9-2.6c-1.7-1.7-2.5-4.1-2.5-7.1c0-3.1,0.8-5.5,2.3-7.3
			s3.7-2.7,6.4-2.7c2.5,0,4.5,0.8,5.9,2.3c1.5,1.5,2.2,3.6,2.2,6.3v2.2h-12.7c0.1,1.8,0.6,3.3,1.5,4.2c0.9,1,2.3,1.5,4,1.5
			c1.1,0,2.2-0.1,3.1-0.3c1-0.2,2-0.6,3.1-1.1v3.3c-1,0.5-2,0.8-3,1C215,54.7,213.9,54.8,212.6,54.8z M211.9,38.2
			c-1.3,0-2.3,0.4-3.1,1.2c-0.8,0.8-1.2,2-1.4,3.6h8.6c0-1.6-0.4-2.8-1.1-3.6C214.1,38.6,213.1,38.2,211.9,38.2z M250.5,44.9
			c0,3.1-0.8,5.5-2.4,7.3c-1.6,1.7-3.8,2.6-6.6,2.6c-1.8,0-3.3-0.4-4.7-1.2s-2.4-2-3.1-3.5c-0.7-1.5-1.1-3.2-1.1-5.2
			c0-3.1,0.8-5.5,2.4-7.2s3.8-2.6,6.7-2.6c2.7,0,4.9,0.9,6.5,2.7S250.5,41.9,250.5,44.9z M236.7,44.9c0,4.4,1.6,6.6,4.9,6.6
			c3.2,0,4.8-2.2,4.8-6.6c0-4.3-1.6-6.5-4.8-6.5c-1.7,0-2.9,0.6-3.7,1.7S236.7,42.8,236.7,44.9z M264.7,38.5H260v16h-4.1v-16h-3.1
			v-1.9l3.1-1.2v-1.2c0-2.2,0.5-3.9,1.6-5c1.1-1.1,2.7-1.6,4.8-1.6c1.4,0,2.8,0.2,4.2,0.7l-1.1,3.1c-1-0.3-1.9-0.5-2.9-0.5
			c-0.9,0-1.6,0.3-2,0.8c-0.4,0.5-0.6,1.4-0.6,2.5v1.2h4.6v3.1H264.7z M293.1,54.5H289V42.8c0-1.5-0.3-2.5-0.8-3.3
			c-0.5-0.7-1.4-1.1-2.6-1.1c-1.6,0-2.7,0.5-3.4,1.5s-1.1,2.7-1.1,5.1v9.5h-4v-19h3.2l0.6,2.5h0.2c0.5-0.9,1.3-1.6,2.3-2.1
			s2.1-0.7,3.3-0.7c2.9,0,4.9,1,5.8,3h0.3c0.6-0.9,1.4-1.7,2.4-2.2s2.2-0.8,3.5-0.8c2.3,0,3.9,0.6,5,1.7c1,1.1,1.6,2.9,1.6,5.2v12.4
			h-4V42.8c0-1.5-0.3-2.5-0.8-3.3c-0.6-0.7-1.4-1.1-2.6-1.1c-1.6,0-2.7,0.5-3.4,1.5s-1.1,2.5-1.1,4.5v10.1H293.1z M327.5,44.9
			c0,3.1-0.8,5.5-2.4,7.3c-1.6,1.7-3.8,2.6-6.6,2.6c-1.8,0-3.3-0.4-4.7-1.2c-1.4-0.8-2.4-2-3.1-3.5s-1.1-3.2-1.1-5.2
			c0-3.1,0.8-5.5,2.4-7.2c1.6-1.7,3.8-2.6,6.7-2.6c2.7,0,4.9,0.9,6.5,2.7C326.7,39.6,327.5,41.9,327.5,44.9z M313.7,44.9
			c0,4.4,1.6,6.6,4.9,6.6c3.2,0,4.8-2.2,4.8-6.6c0-4.3-1.6-6.5-4.8-6.5c-1.7,0-2.9,0.6-3.7,1.7C314.1,41.2,313.7,42.8,313.7,44.9z
			 M348.9,54.5h-4.1V42.8c0-1.5-0.3-2.6-0.9-3.3c-0.6-0.7-1.5-1.1-2.8-1.1c-1.7,0-3,0.5-3.7,1.5s-1.2,2.7-1.2,5.1v9.5h-4v-19h3.2
			L336,38h0.2c0.6-0.9,1.4-1.6,2.4-2.1s2.2-0.7,3.5-0.7c4.6,0,6.8,2.3,6.8,7V54.5z M362.8,54.8c-3,0-5.3-0.9-6.9-2.6
			c-1.7-1.7-2.5-4.1-2.5-7.1c0-3.1,0.8-5.5,2.3-7.3s3.7-2.7,6.4-2.7c2.5,0,4.5,0.8,5.9,2.3c1.5,1.5,2.2,3.6,2.2,6.3v2.2h-12.7
			c0.1,1.8,0.6,3.3,1.5,4.2c0.9,1,2.3,1.5,4,1.5c1.1,0,2.2-0.1,3.1-0.3c0.9-0.2,2-0.6,3.1-1.1v3.3c-1,0.5-2,0.8-3,1
			C365.2,54.7,364.1,54.8,362.8,54.8z M362,38.2c-1.3,0-2.3,0.4-3.1,1.2c-0.8,0.8-1.2,2-1.4,3.6h8.6c0-1.6-0.4-2.8-1.1-3.6
			S363.3,38.2,362,38.2z M371.2,35.5h4.4l3.9,10.8c0.6,1.5,1,3,1.2,4.3h0.1c0.1-0.6,0.3-1.4,0.6-2.3c0.3-0.9,1.7-5.2,4.4-12.8h4.4
			L382,57c-1.5,3.9-3.9,5.9-7.4,5.9c-0.9,0-1.8-0.1-2.6-0.3v-3.2c0.6,0.1,1.3,0.2,2.1,0.2c1.9,0,3.3-1.1,4.1-3.4l0.7-1.8L371.2,35.5
			z"/>
	</g>
</g>
</svg>
